<?xml version="1.0" encoding="UTF-8"?>
<!-- NailNow illustrated background. Update cautiously to keep branding consistent. -->
<svg width="1440" height="1024" viewBox="0 0 1440 1024" fill="none" xmlns="http://www.w3.org/2000/svg" role="img" aria-hidden="true">
  <defs>
    <linearGradient id="bgGradient" x1="0" y1="0" x2="0" y2="1" gradientUnits="objectBoundingBox">
      <stop offset="0" stop-color="#fff3f9" />
      <stop offset="1" stop-color="#ffe4f2" />
    </linearGradient>
    <radialGradient id="radialGlow" cx="0" cy="0" r="1" gradientUnits="userSpaceOnUse" gradientTransform="translate(1120 120) rotate(160) scale(560 420)">
      <stop stop-color="#f45ca2" stop-opacity="0.35" />
      <stop offset="1" stop-color="#f45ca2" stop-opacity="0" />
    </radialGradient>
    <radialGradient id="radialGlowSecondary" cx="0" cy="0" r="1" gradientUnits="userSpaceOnUse" gradientTransform="translate(280 880) rotate(20) scale(520 360)">
      <stop stop-color="#ff9ccc" stop-opacity="0.28" />
      <stop offset="1" stop-color="#ff9ccc" stop-opacity="0" />
    </radialGradient>
    <linearGradient id="waveGradient" x1="0" y1="0" x2="1" y2="1">
      <stop offset="0" stop-color="#ffafd6" stop-opacity="0.65" />
      <stop offset="1" stop-color="#f45ca2" stop-opacity="0.2" />
    </linearGradient>
  </defs>
  <rect width="1440" height="1024" fill="url(#bgGradient)" />
  <ellipse cx="1140" cy="140" rx="540" ry="360" fill="url(#radialGlow)" />
  <ellipse cx="280" cy="860" rx="520" ry="340" fill="url(#radialGlowSecondary)" />
  <path d="M0 700C160 640 240 640 400 720C560 800 720 920 960 900C1200 880 1290 760 1440 720V1024H0V700Z" fill="url(#waveGradient)" />
  <path d="M0 540C120 520 260 520 420 600C580 680 720 800 940 780C1160 760 1290 620 1440 580V1024H0V540Z" fill="#f45ca2" fill-opacity="0.08" />
  <g fill="#f45ca2" fill-opacity="0.1">
    <circle cx="260" cy="220" r="60" />
    <circle cx="1240" cy="720" r="48" />
    <circle cx="1020" cy="260" r="36" />
  </g>
  <g stroke="#f45ca2" stroke-opacity="0.18" stroke-width="3">
    <path d="M220 140C240 116 272 100 304 104C336 108 360 136 360 168C360 200 336 228 304 232C272 236 240 212 220 180" stroke-linecap="round" stroke-linejoin="round" />
    <path d="M1180 880C1200 852 1236 836 1270 840C1304 844 1330 868 1334 902C1338 936 1318 970 1288 980C1258 990 1224 976 1206 950" stroke-linecap="round" stroke-linejoin="round" />
  </g>
</svg>
