<svg width="160" height="160" viewBox="0 0 160 160" xmlns="http://www.w3.org/2000/svg">
  <defs>
    <linearGradient id="brush" x1="0%" y1="0%" x2="100%" y2="100%">
      <stop offset="0%" stop-color="#f4a8c8" />
      <stop offset="100%" stop-color="#f9bfd9" />
    </linearGradient>
  </defs>
  <rect width="160" height="160" fill="white" />
  <g fill="#f9bfd9" transform="translate(40 32)">
    <path d="M40 0c17 0 30 13 30 30 0 17-13 30-30 30-17 0-30-13-30-30C10 13 23 0 40 0Z" transform="rotate(-20 40 30)" />
    <path d="M40 0c17 0 30 13 30 30 0 17-13 30-30 30-17 0-30-13-30-30C10 13 23 0 40 0Z" transform="rotate(55 40 30)" />
    <path d="M40 0c17 0 30 13 30 30 0 17-13 30-30 30-17 0-30-13-30-30C10 13 23 0 40 0Z" transform="rotate(130 40 30)" />
    <path d="M40 0c17 0 30 13 30 30 0 17-13 30-30 30-17 0-30-13-30-30C10 13 23 0 40 0Z" transform="rotate(205 40 30)" />
  </g>
  <g transform="translate(96 20)">
    <rect x="0" y="24" width="44" height="10" rx="5" fill="url(#brush)" />
    <path d="M44 25l12-7c2-1 4 .4 3.4 2.6l-5 17.4c-.5 1.7-2.5 2.4-4 1.3l-7.4-6.3z" fill="#f4a8c8" />
  </g>
  <g fill="#f9bfd9" transform="translate(-40 32)">
    <path d="M40 0c17 0 30 13 30 30 0 17-13 30-30 30-17 0-30-13-30-30C10 13 23 0 40 0Z" transform="rotate(-20 40 30)" />
    <path d="M40 0c17 0 30 13 30 30 0 17-13 30-30 30-17 0-30-13-30-30C10 13 23 0 40 0Z" transform="rotate(55 40 30)" />
    <path d="M40 0c17 0 30 13 30 30 0 17-13 30-30 30-17 0-30-13-30-30C10 13 23 0 40 0Z" transform="rotate(130 40 30)" />
    <path d="M40 0c17 0 30 13 30 30 0 17-13 30-30 30-17 0-30-13-30-30C10 13 23 0 40 0Z" transform="rotate(205 40 30)" />
  </g>
  <g transform="translate(16 20)">
    <rect x="0" y="24" width="44" height="10" rx="5" fill="url(#brush)" />
    <path d="M44 25l12-7c2-1 4 .4 3.4 2.6l-5 17.4c-.5 1.7-2.5 2.4-4 1.3l-7.4-6.3z" fill="#f4a8c8" />
  </g>
  <g fill="#f9bfd9" transform="translate(40 112)">
    <path d="M40 0c17 0 30 13 30 30 0 17-13 30-30 30-17 0-30-13-30-30C10 13 23 0 40 0Z" transform="rotate(-20 40 30)" />
    <path d="M40 0c17 0 30 13 30 30 0 17-13 30-30 30-17 0-30-13-30-30C10 13 23 0 40 0Z" transform="rotate(55 40 30)" />
    <path d="M40 0c17 0 30 13 30 30 0 17-13 30-30 30-17 0-30-13-30-30C10 13 23 0 40 0Z" transform="rotate(130 40 30)" />
    <path d="M40 0c17 0 30 13 30 30 0 17-13 30-30 30-17 0-30-13-30-30C10 13 23 0 40 0Z" transform="rotate(205 40 30)" />
  </g>
  <g transform="translate(96 100)">
    <rect x="0" y="24" width="44" height="10" rx="5" fill="url(#brush)" />
    <path d="M44 25l12-7c2-1 4 .4 3.4 2.6l-5 17.4c-.5 1.7-2.5 2.4-4 1.3l-7.4-6.3z" fill="#f4a8c8" />
  </g>
  <g fill="#f9bfd9" transform="translate(-40 112)">
    <path d="M40 0c17 0 30 13 30 30 0 17-13 30-30 30-17 0-30-13-30-30C10 13 23 0 40 0Z" transform="rotate(-20 40 30)" />
    <path d="M40 0c17 0 30 13 30 30 0 17-13 30-30 30-17 0-30-13-30-30C10 13 23 0 40 0Z" transform="rotate(55 40 30)" />
    <path d="M40 0c17 0 30 13 30 30 0 17-13 30-30 30-17 0-30-13-30-30C10 13 23 0 40 0Z" transform="rotate(130 40 30)" />
    <path d="M40 0c17 0 30 13 30 30 0 17-13 30-30 30-17 0-30-13-30-30C10 13 23 0 40 0Z" transform="rotate(205 40 30)" />
  </g>
  <g transform="translate(16 100)">
    <rect x="0" y="24" width="44" height="10" rx="5" fill="url(#brush)" />
    <path d="M44 25l12-7c2-1 4 .4 3.4 2.6l-5 17.4c-.5 1.7-2.5 2.4-4 1.3l-7.4-6.3z" fill="#f4a8c8" />
  </g>
</svg>
